<svg width="354" height="363" viewBox="0 0 354 363" fill="none" xmlns="http://www.w3.org/2000/svg">
<path d="M269.997 87.7781C270.391 135.247 232.472 174.103 185.122 174.981C185.121 174.971 185.119 174.961 185.118 174.951C185.044 174.338 184.925 173.442 184.745 172.303C184.384 170.025 183.778 166.77 182.792 162.847C180.821 155.004 177.331 144.474 171.249 133.738C159.159 112.396 136.828 90.2549 95.988 86.8072C96.0987 39.5084 135.28 2.39279 182.783 1.9987C230.554 1.60239 269.601 40.0072 269.997 87.7781Z" fill="white" fill-opacity="0.08" stroke="url(#paint0_linear_73_1550)" stroke-width="2"/>
<path d="M168.812 85.5C170.26 88.0123 173.47 88.8754 175.982 87.4279C175.984 87.4269 175.986 87.4259 175.987 87.4249L176.766 86.9752C178.236 88.2329 179.926 89.2082 181.75 89.8522V90.75C181.75 93.6495 184.101 96 187 96C189.9 96 192.25 93.6495 192.25 90.75V89.8522C194.075 89.2072 195.764 88.2307 197.234 86.9717L198.016 87.4232C200.529 88.873 203.742 88.0111 205.191 85.4982C206.641 82.9853 205.779 79.7729 203.266 78.3232L202.489 77.8752C202.839 75.972 202.839 74.021 202.489 72.1177L203.266 71.6697C205.779 70.22 206.641 67.0076 205.191 64.4947C203.742 61.9818 200.529 61.1199 198.016 62.5696L197.238 63.0194C195.766 61.7633 194.075 60.7897 192.25 60.1477V59.25C192.25 56.3505 189.9 54 187 54C184.101 54 181.75 56.3505 181.75 59.25V60.1477C179.925 60.7928 178.236 61.7693 176.766 63.0283L175.984 62.5751C173.471 61.1252 170.259 61.9871 168.809 64.5C167.359 67.0129 168.221 70.2253 170.734 71.675L171.511 72.123C171.161 74.0262 171.161 75.9772 171.511 77.8805L170.734 78.3285C168.228 79.7821 167.369 82.9882 168.812 85.5ZM187 68C190.866 68 194 71.134 194 75C194 78.866 190.866 82 187 82C183.134 82 180 78.866 180 75C180 71.134 183.134 68 187 68Z" fill="white"/>
<path d="M87.5622 92.0974C135.03 91.5326 174.022 129.311 175.07 176.658C175.06 176.659 175.05 176.661 175.04 176.662C174.427 176.738 173.532 176.86 172.394 177.045C170.116 177.413 166.864 178.032 162.944 179.032C155.109 181.031 144.592 184.559 133.878 190.679C112.579 202.846 90.5186 225.257 87.218 266.109C39.9191 266.169 2.66259 227.122 2.09743 179.62C1.52907 131.851 39.793 92.6657 87.5622 92.0974Z" fill="white" fill-opacity="0.08" stroke="url(#paint1_linear_73_1550)" stroke-width="2"/>
<g clip-path="url(#clip0_73_1550)">
<path d="M79 144C67.4202 144 58 153.42 58 165C58 176.58 67.4202 186 79 186C90.5798 186 100 176.58 100 165C100 153.42 90.5798 144 79 144ZM78.8408 170.983C78.1635 171.66 77.2727 171.998 76.3785 171.998C75.4842 171.998 74.5848 171.657 73.9005 170.974L69.032 166.257L71.4698 163.742L76.3575 168.479L86.5233 158.502L88.9802 160.996L78.8408 170.983Z" fill="white"/>
</g>
<path d="M94.8724 275.161C92.771 227.737 129.267 187.542 176.556 184.961C176.557 184.971 176.559 184.981 176.56 184.991C176.656 185.601 176.807 186.492 177.028 187.624C177.471 189.888 178.194 193.119 179.32 197.004C181.572 204.77 185.439 215.168 191.903 225.678C204.753 246.572 227.866 267.895 268.804 269.871C270.395 317.143 232.575 355.644 185.117 357.747C137.391 359.862 96.9871 322.887 94.8724 275.161Z" fill="white" fill-opacity="0.08" stroke="url(#paint2_linear_73_1550)" stroke-width="2"/>
<g clip-path="url(#clip1_73_1550)">
<path d="M191 272.375C189.82 272.415 188.648 272.575 187.5 272.851V269.75C187.5 268.358 186.947 267.022 185.962 266.038C184.978 265.053 183.642 264.5 182.25 264.5H178.274C178.551 263.353 178.711 262.18 178.75 261C178.75 259.143 178.013 257.363 176.7 256.05C175.387 254.737 173.607 254 171.75 254C169.893 254 168.113 254.737 166.8 256.05C165.487 257.363 164.75 259.143 164.75 261C164.789 262.18 164.949 263.353 165.226 264.5H161.25C159.858 264.5 158.522 265.053 157.538 266.038C156.553 267.022 156 268.358 156 269.75V296H167.438L167.025 294.25C166.73 293.105 166.554 291.932 166.5 290.75C166.5 289.358 167.053 288.022 168.038 287.038C169.022 286.053 170.358 285.5 171.75 285.5C173.142 285.5 174.478 286.053 175.462 287.038C176.447 288.022 177 289.358 177 290.75C176.946 291.932 176.77 293.105 176.475 294.25L176.06 296H187.5V285.899C188.648 286.175 189.82 286.335 191 286.375C192.857 286.375 194.637 285.638 195.95 284.325C197.263 283.012 198 281.232 198 279.375C198 277.518 197.263 275.738 195.95 274.425C194.637 273.112 192.857 272.375 191 272.375Z" fill="white"/>
</g>
<path d="M352.503 187.415C348.04 222.01 325.342 255.565 277.91 263.999C230.305 264.136 186.723 231.799 185.993 184.71C186 184.71 186.006 184.709 186.013 184.708C186.629 184.645 187.529 184.541 188.674 184.38C190.963 184.059 194.234 183.508 198.178 182.589C206.062 180.751 216.652 177.439 227.46 171.536C248.947 159.801 271.28 137.825 274.918 97.0018C322.024 97.3893 354.45 141.15 352.503 187.415Z" fill="white" fill-opacity="0.08" stroke="url(#paint3_linear_73_1550)" stroke-width="2"/>
<g clip-path="url(#clip2_73_1550)">
<path d="M281.75 176H278.25C276.32 176 274.75 174.43 274.75 172.5C274.75 170.57 276.32 169 278.25 169H281.75C283.68 169 285.25 170.57 285.25 172.5C285.25 174.43 283.68 176 281.75 176ZM290.5 172.5C293.4 172.5 295.75 174.85 295.75 177.75V211H264.25V177.75C264.25 174.85 266.6 172.5 269.5 172.5H271.25C271.25 176.361 274.389 179.5 278.25 179.5H281.75C285.611 179.5 288.75 176.361 288.75 172.5H290.5Z" fill="white"/>
</g>
<defs>
<linearGradient id="paint0_linear_73_1550" x1="182.274" y1="1.00288" x2="183.726" y2="175.997" gradientUnits="userSpaceOnUse">
<stop stop-color="#F5718B"/>
<stop offset="0.55" stop-color="#020C0E" stop-opacity="0"/>
</linearGradient>
<linearGradient id="paint1_linear_73_1550" x1="1.10345" y1="180.132" x2="176.091" y2="178.05" gradientUnits="userSpaceOnUse">
<stop stop-color="#C60103"/>
<stop offset="0.54" stop-color="#020C0E" stop-opacity="0"/>
</linearGradient>
<linearGradient id="paint2_linear_73_1550" x1="185.66" y1="358.724" x2="177.914" y2="183.896" gradientUnits="userSpaceOnUse">
<stop stop-color="#F5718B"/>
<stop offset="0.55" stop-color="#020C0E" stop-opacity="0"/>
</linearGradient>
<linearGradient id="paint3_linear_73_1550" x1="353.574" y1="180.213" x2="184.973" y2="180.835" gradientUnits="userSpaceOnUse">
<stop stop-color="#C60103"/>
<stop offset="0.54" stop-color="#020C0E" stop-opacity="0"/>
</linearGradient>
<clipPath id="clip0_73_1550">
<rect width="42" height="42" fill="white" transform="translate(58 144)"/>
</clipPath>
<clipPath id="clip1_73_1550">
<rect width="42" height="42" fill="white" transform="translate(156 254)"/>
</clipPath>
<clipPath id="clip2_73_1550">
<rect width="42" height="42" fill="white" transform="translate(259 169)"/>
</clipPath>
</defs>
</svg>
